<svg viewBox="0 0 400 240" xmlns="http://www.w3.org/2000/svg" role="img" aria-label="Illustration of the Royal Suite with a canopy bed and brass chandelier">
  <rect width="400" height="240" fill="#F4EEE2"/>
  <rect x="0" y="185" width="400" height="55" fill="#E9E0CC"/>
  <!-- canopy -->
  <path d="M70 50 h180 l-14 30 h-152z" fill="#181729"/>
  <rect x="70" y="50" width="180" height="6" fill="#D4AF6A"/>
  <path d="M86 80 L70 50 M250 50 L234 80" stroke="#D4AF6A" stroke-width="2" opacity="0.7"/>
  <!-- canopy bed -->
  <rect x="60" y="170" width="200" height="20" rx="4" fill="#A8602F"/>
  <rect x="60" y="118" width="200" height="56" rx="6" fill="#C97F4B"/>
  <rect x="48" y="78" width="16" height="112" rx="3" fill="#181729"/>
  <rect x="256" y="78" width="16" height="112" rx="3" fill="#181729"/>
  <rect x="74" y="126" width="80" height="40" rx="4" fill="#FBF8F2"/>
  <rect x="74" y="126" width="190" height="10" rx="3" fill="#FBF8F2" opacity="0.7"/>
  <!-- chandelier -->
  <line x1="330" y1="0" x2="330" y2="40" stroke="#D4AF6A" stroke-width="2"/>
  <circle cx="330" cy="48" r="10" fill="#D4AF6A"/>
  <circle cx="312" cy="60" r="6" fill="#F4D78A" opacity="0.85"/>
  <circle cx="348" cy="60" r="6" fill="#F4D78A" opacity="0.85"/>
  <circle cx="330" cy="64" r="6" fill="#F4D78A" opacity="0.85"/>
</svg>
